# Made in Blockbench 4.10.3
mtllib floor.mtl

o plane
v 0.5 -0.625 0.25000000000000006
v 0.5 0 0.24999999999999994
v -0.5 -0.625 0.25000000000000006
v -0.5 0 0.24999999999999994
v 0.5 -1.1102230246251565e-16 -0.2500000000000001
v -0.5 -1.1102230246251565e-16 -0.2500000000000001
vt 0.5 0.6875
vt 0.5 1
vt 0 1
vt 0 0.6875
vt 0 0.65625
vt 0 0.40625
vt 0.5 0.40625
vt 0.5 0.65625
vn 0 2.220446049250313e-16 1
vn 0 1 -2.220446049250313e-16
usemtl m_3dd045c7-051c-8681-331d-2215c500eb4d
f 1/1/1 2/2/1 4/3/1 3/4/1
f 2/5/2 5/6/2 6/7/2 4/8/2